<svg xmlns="http://www.w3.org/2000/svg" width="640" height="360" viewBox="1728 768 640 360" shape-rendering="crispEdges"><defs><marker id="arr0" viewBox="0 0 10 10" refX="10" refY="5" markerWidth="5" markerHeight="5" orient="auto"><path d="M0,0 L10,5 L0,10 z" fill="#00ff00"/></marker><marker id="arr1" viewBox="0 0 10 10" refX="10" refY="5" markerWidth="5" markerHeight="5" orient="auto"><path d="M0,0 L10,5 L0,10 z" fill="#ffff00"/></marker><marker id="arr2" viewBox="0 0 10 10" refX="10" refY="5" markerWidth="5" markerHeight="5" orient="auto"><path d="M0,0 L10,5 L0,10 z" fill="#00ffff"/></marker><marker id="arr3" viewBox="0 0 10 10" refX="10" refY="5" markerWidth="5" markerHeight="5" orient="auto"><path d="M0,0 L10,5 L0,10 z" fill="#ff00ff"/></marker><marker id="arr4" viewBox="0 0 10 10" refX="10" refY="5" markerWidth="5" markerHeight="5" orient="auto"><path d="M0,0 L10,5 L0,10 z" fill="#ff8000"/></marker><marker id="arr5" viewBox="0 0 10 10" refX="10" refY="5" markerWidth="5" markerHeight="5" orient="auto"><path d="M0,0 L10,5 L0,10 z" fill="#ffffff"/></marker></defs><rect x="1728" y="768" width="640" height="360" fill="#000000"/><clipPath id="screen3"><rect x="1728" y="768" width="320" height="180"/><rect x="1728" y="948" width="320" height="180"/><rect x="2048" y="768" width="320" height="180"/><rect x="2048" y="948" width="320" height="180"/></clipPath><rect x="1728" y="768" width="320" height="180" fill="#400000"/><rect x="1728.5" y="768.5" width="319" height="179" fill="none" stroke="#ff00ff" stroke-width="1"/><text x="1888.0" y="870.6" font-family="Arial, 'Liberation Sans', Helvetica, sans-serif" font-size="36" font-weight="bold" fill="#ffffff" text-anchor="middle">1-3-3</text><text x="1732" y="785.3" font-family="Arial, 'Liberation Sans', Helvetica, sans-serif" font-size="15" font-weight="normal" fill="#ffffff" text-anchor="start">R1 C1</text><text x="2044" y="785.3" font-family="Arial, 'Liberation Sans', Helvetica, sans-serif" font-size="15" font-weight="normal" fill="#ffffff" text-anchor="end">P3</text><text x="1732" y="943" font-family="Arial, 'Liberation Sans', Helvetica, sans-serif" font-size="12" font-weight="normal" fill="#cccccc" text-anchor="start">0,0  320x180</text><rect x="1728" y="948" width="320" height="180" fill="#004000"/><rect x="1728.5" y="948.5" width="319" height="179" fill="none" stroke="#00ffff" stroke-width="1"/><text x="1888.0" y="1050.6" font-family="Arial, 'Liberation Sans', Helvetica, sans-serif" font-size="36" font-weight="bold" fill="#ffffff" text-anchor="middle">1-3-4</text><text x="1732" y="965.3" font-family="Arial, 'Liberation Sans', Helvetica, sans-serif" font-size="15" font-weight="normal" fill="#ffffff" text-anchor="start">R2 C1</text><text x="2044" y="965.3" font-family="Arial, 'Liberation Sans', Helvetica, sans-serif" font-size="15" font-weight="normal" fill="#ffffff" text-anchor="end">P3</text><text x="1732" y="1123" font-family="Arial, 'Liberation Sans', Helvetica, sans-serif" font-size="12" font-weight="normal" fill="#cccccc" text-anchor="start">0,180  320x180</text><rect x="2048" y="768" width="320" height="180" fill="#004000"/><rect x="2048.5" y="768.5" width="319" height="179" fill="none" stroke="#00ffff" stroke-width="1"/><text x="2208.0" y="870.6" font-family="Arial, 'Liberation Sans', Helvetica, sans-serif" font-size="36" font-weight="bold" fill="#ffffff" text-anchor="middle">1-3-2</text><text x="2052" y="785.3" font-family="Arial, 'Liberation Sans', Helvetica, sans-serif" font-size="15" font-weight="normal" fill="#ffffff" text-anchor="start">R1 C2</text><text x="2364" y="785.3" font-family="Arial, 'Liberation Sans', Helvetica, sans-serif" font-size="15" font-weight="normal" fill="#ffffff" text-anchor="end">P3</text><text x="2052" y="943" font-family="Arial, 'Liberation Sans', Helvetica, sans-serif" font-size="12" font-weight="normal" fill="#cccccc" text-anchor="start">320,0  320x180</text><rect x="2048" y="948" width="320" height="180" fill="#000040"/><rect x="2048.5" y="948.5" width="319" height="179" fill="none" stroke="#ffff00" stroke-width="1"/><text x="2208.0" y="1050.6" font-family="Arial, 'Liberation Sans', Helvetica, sans-serif" font-size="36" font-weight="bold" fill="#ffffff" text-anchor="middle">1-3-1</text><text x="2052" y="965.3" font-family="Arial, 'Liberation Sans', Helvetica, sans-serif" font-size="15" font-weight="normal" fill="#ffffff" text-anchor="start">R2 C2</text><text x="2364" y="965.3" font-family="Arial, 'Liberation Sans', Helvetica, sans-serif" font-size="15" font-weight="normal" fill="#ffffff" text-anchor="end">P3</text><text x="2052" y="1123" font-family="Arial, 'Liberation Sans', Helvetica, sans-serif" font-size="12" font-weight="normal" fill="#cccccc" text-anchor="start">320,180  320x180</text><circle cx="2048.0" cy="948.0" r="179.5" fill="none" stroke="#ffffff" stroke-width="1" clip-path="url(#screen3)"/><path d="M2208.0,1054.2 L2208.0,874.2 L1888.0,874.2 L1888.0,1054.2" fill="none" stroke="#00ffff" stroke-width="3" stroke-opacity="0.8" marker-mid="url(#arr2)" marker-end="url(#arr2)"/><circle cx="2208.0" cy="1054.2" r="9" fill="#00ffff"/><text x="2208.0" y="1059.2" font-family="Arial, 'Liberation Sans', Helvetica, sans-serif" font-size="13" font-weight="bold" fill="#000000" text-anchor="middle">S</text><rect x="1730" y="1076" width="450" height="29" fill="#000000" fill-opacity="0.75"/><text x="1732" y="1098" font-family="Arial, 'Liberation Sans', Helvetica, sans-serif" font-size="22" font-weight="normal" fill="#e6b800" text-anchor="start">S4 1.9mm - Cabinets Mapping  640x360</text></svg>